<svg xmlns="http://www.w3.org/2000/svg" xmlns:xlink="http://www.w3.org/1999/xlink" width="312" height="312" viewBox="0 0 312 312">
    <defs>
      <filter id="Rectangle_6" x="0" y="0" width="312" height="312" filterUnits="userSpaceOnUse">
        <feOffset dx="10" dy="20" input="SourceAlpha"/>
        <feGaussianBlur stdDeviation="28" result="blur"/>
        <feFlood flood-color="#05207F" flood-opacity="0.2"/>
        <feComposite operator="in" in2="blur"/>
        <feComposite in="SourceGraphic"/>
      </filter>
    </defs>
    <g id="Group_1512" data-name="Group 1512" transform="translate(-289 -1375)">
      <g id="Group_12" data-name="Group 12" transform="translate(9 -319)" opacity="0.2">
        <circle id="Ellipse_4" data-name="Ellipse 4" cx="3" cy="3" r="3" transform="translate(518.5 1726.5) rotate(90)" fill= "#2196F3"/>
        <circle id="Ellipse_4-2" data-name="Ellipse 4" cx="3" cy="3" r="3" transform="translate(518.5 1743.5) rotate(90)" fill= "#2196F3"/>
        <circle id="Ellipse_4-3" data-name="Ellipse 4" cx="3" cy="3" r="3" transform="translate(518.5 1760.5) rotate(90)" fill= "#2196F3"/>
        <circle id="Ellipse_4-4" data-name="Ellipse 4" cx="3" cy="3" r="3" transform="translate(518.5 1774.873) rotate(90)" fill= "#2196F3"/>
        <circle id="Ellipse_4-5" data-name="Ellipse 4" cx="3" cy="3" r="3" transform="translate(518.5 1790.998) rotate(90)" fill= "#2196F3"/>
        <circle id="Ellipse_4-6" data-name="Ellipse 4" cx="3" cy="3" r="3" transform="translate(518.5 1807.122) rotate(90)" fill= "#2196F3"/>
        <circle id="Ellipse_4-7" data-name="Ellipse 4" cx="3" cy="3" r="3" transform="translate(518.5 1823.247) rotate(90)" fill= "#2196F3"/>
        <circle id="Ellipse_4-8" data-name="Ellipse 4" cx="3" cy="3" r="3" transform="translate(518.5 1839.371) rotate(90)" fill= "#2196F3"/>
        <circle id="Ellipse_4-9" data-name="Ellipse 4" cx="3" cy="3" r="3" transform="translate(518.5 1855.495) rotate(90)" fill= "#2196F3"/>
        <circle id="Ellipse_4-10" data-name="Ellipse 4" cx="3" cy="3" r="3" transform="translate(518.5 1871.62) rotate(90)" fill= "#2196F3"/>
        <circle id="Ellipse_4-11" data-name="Ellipse 4" cx="3" cy="3" r="3" transform="translate(518.5 1885.993) rotate(90)" fill= "#2196F3"/>
        <circle id="Ellipse_4-12" data-name="Ellipse 4" cx="3" cy="3" r="3" transform="translate(518.5 1902.993) rotate(90)" fill= "#2196F3"/>
        <circle id="Ellipse_4-13" data-name="Ellipse 4" cx="3" cy="3" r="3" transform="translate(518.5 1919.993) rotate(90)" fill= "#2196F3"/>
        <circle id="Ellipse_4-14" data-name="Ellipse 4" cx="3" cy="3" r="3" transform="translate(450.5 1726.5) rotate(90)" fill= "#2196F3"/>
        <circle id="Ellipse_4-15" data-name="Ellipse 4" cx="3" cy="3" r="3" transform="translate(450.5 1743.5) rotate(90)" fill= "#2196F3"/>
        <circle id="Ellipse_4-16" data-name="Ellipse 4" cx="3" cy="3" r="3" transform="translate(450.5 1760.5) rotate(90)" fill= "#2196F3"/>
        <circle id="Ellipse_4-17" data-name="Ellipse 4" cx="3" cy="3" r="3" transform="translate(450.5 1774.873) rotate(90)" fill= "#2196F3"/>
        <circle id="Ellipse_4-18" data-name="Ellipse 4" cx="3" cy="3" r="3" transform="translate(450.5 1790.998) rotate(90)" fill= "#2196F3"/>
        <circle id="Ellipse_4-19" data-name="Ellipse 4" cx="3" cy="3" r="3" transform="translate(450.5 1807.122) rotate(90)" fill= "#2196F3"/>
        <circle id="Ellipse_4-20" data-name="Ellipse 4" cx="3" cy="3" r="3" transform="translate(450.5 1823.247) rotate(90)" fill= "#2196F3"/>
        <circle id="Ellipse_4-21" data-name="Ellipse 4" cx="3" cy="3" r="3" transform="translate(501.5 1726.5) rotate(90)" fill= "#2196F3"/>
        <circle id="Ellipse_4-22" data-name="Ellipse 4" cx="3" cy="3" r="3" transform="translate(501.5 1743.5) rotate(90)" fill= "#2196F3"/>
        <circle id="Ellipse_4-23" data-name="Ellipse 4" cx="3" cy="3" r="3" transform="translate(501.5 1760.5) rotate(90)" fill= "#2196F3"/>
        <circle id="Ellipse_4-24" data-name="Ellipse 4" cx="3" cy="3" r="3" transform="translate(501.5 1774.873) rotate(90)" fill= "#2196F3"/>
        <circle id="Ellipse_4-25" data-name="Ellipse 4" cx="3" cy="3" r="3" transform="translate(501.5 1790.998) rotate(90)" fill= "#2196F3"/>
        <circle id="Ellipse_4-26" data-name="Ellipse 4" cx="3" cy="3" r="3" transform="translate(501.5 1807.122) rotate(90)" fill= "#2196F3"/>
        <circle id="Ellipse_4-27" data-name="Ellipse 4" cx="3" cy="3" r="3" transform="translate(501.5 1823.247) rotate(90)" fill= "#2196F3"/>
        <circle id="Ellipse_4-28" data-name="Ellipse 4" cx="3" cy="3" r="3" transform="translate(501.5 1839.371) rotate(90)" fill= "#2196F3"/>
        <circle id="Ellipse_4-29" data-name="Ellipse 4" cx="3" cy="3" r="3" transform="translate(501.5 1855.495) rotate(90)" fill= "#2196F3"/>
        <circle id="Ellipse_4-30" data-name="Ellipse 4" cx="3" cy="3" r="3" transform="translate(501.5 1871.62) rotate(90)" fill= "#2196F3"/>
        <circle id="Ellipse_4-31" data-name="Ellipse 4" cx="3" cy="3" r="3" transform="translate(501.5 1885.993) rotate(90)" fill= "#2196F3"/>
        <circle id="Ellipse_4-32" data-name="Ellipse 4" cx="3" cy="3" r="3" transform="translate(501.5 1902.993) rotate(90)" fill= "#2196F3"/>
        <circle id="Ellipse_4-33" data-name="Ellipse 4" cx="3" cy="3" r="3" transform="translate(501.5 1919.993) rotate(90)" fill= "#2196F3"/>
        <circle id="Ellipse_4-34" data-name="Ellipse 4" cx="3" cy="3" r="3" transform="translate(433.5 1726.5) rotate(90)" fill= "#2196F3"/>
        <circle id="Ellipse_4-35" data-name="Ellipse 4" cx="3" cy="3" r="3" transform="translate(433.5 1743.5) rotate(90)" fill= "#2196F3"/>
        <circle id="Ellipse_4-36" data-name="Ellipse 4" cx="3" cy="3" r="3" transform="translate(433.5 1760.5) rotate(90)" fill= "#2196F3"/>
        <circle id="Ellipse_4-37" data-name="Ellipse 4" cx="3" cy="3" r="3" transform="translate(433.5 1774.873) rotate(90)" fill= "#2196F3"/>
        <circle id="Ellipse_4-38" data-name="Ellipse 4" cx="3" cy="3" r="3" transform="translate(433.5 1790.998) rotate(90)" fill= "#2196F3"/>
        <circle id="Ellipse_4-39" data-name="Ellipse 4" cx="3" cy="3" r="3" transform="translate(433.5 1807.122) rotate(90)" fill= "#2196F3"/>
        <circle id="Ellipse_4-40" data-name="Ellipse 4" cx="3" cy="3" r="3" transform="translate(433.5 1823.247) rotate(90)" fill= "#2196F3"/>
        <circle id="Ellipse_4-41" data-name="Ellipse 4" cx="3" cy="3" r="3" transform="translate(484.5 1726.5) rotate(90)" fill= "#2196F3"/>
        <circle id="Ellipse_4-42" data-name="Ellipse 4" cx="3" cy="3" r="3" transform="translate(484.5 1743.5) rotate(90)" fill= "#2196F3"/>
        <circle id="Ellipse_4-43" data-name="Ellipse 4" cx="3" cy="3" r="3" transform="translate(484.5 1760.5) rotate(90)" fill= "#2196F3"/>
        <circle id="Ellipse_4-44" data-name="Ellipse 4" cx="3" cy="3" r="3" transform="translate(484.5 1774.873) rotate(90)" fill= "#2196F3"/>
        <circle id="Ellipse_4-45" data-name="Ellipse 4" cx="3" cy="3" r="3" transform="translate(484.5 1790.998) rotate(90)" fill= "#2196F3"/>
        <circle id="Ellipse_4-46" data-name="Ellipse 4" cx="3" cy="3" r="3" transform="translate(484.5 1807.122) rotate(90)" fill= "#2196F3"/>
        <circle id="Ellipse_4-47" data-name="Ellipse 4" cx="3" cy="3" r="3" transform="translate(484.5 1823.247) rotate(90)" fill= "#2196F3"/>
        <circle id="Ellipse_4-48" data-name="Ellipse 4" cx="3" cy="3" r="3" transform="translate(484.5 1839.371) rotate(90)" fill= "#2196F3"/>
        <circle id="Ellipse_4-49" data-name="Ellipse 4" cx="3" cy="3" r="3" transform="translate(484.5 1855.495) rotate(90)" fill= "#2196F3"/>
        <circle id="Ellipse_4-50" data-name="Ellipse 4" cx="3" cy="3" r="3" transform="translate(484.5 1871.62) rotate(90)" fill= "#2196F3"/>
        <circle id="Ellipse_4-51" data-name="Ellipse 4" cx="3" cy="3" r="3" transform="translate(484.5 1885.993) rotate(90)" fill= "#2196F3"/>
        <circle id="Ellipse_4-52" data-name="Ellipse 4" cx="3" cy="3" r="3" transform="translate(484.5 1902.993) rotate(90)" fill= "#2196F3"/>
        <circle id="Ellipse_4-53" data-name="Ellipse 4" cx="3" cy="3" r="3" transform="translate(484.5 1919.993) rotate(90)" fill= "#2196F3"/>
        <circle id="Ellipse_4-54" data-name="Ellipse 4" cx="3" cy="3" r="3" transform="translate(450.5 1839.371) rotate(90)" fill= "#2196F3"/>
        <circle id="Ellipse_4-55" data-name="Ellipse 4" cx="3" cy="3" r="3" transform="translate(450.5 1855.495) rotate(90)" fill= "#2196F3"/>
        <circle id="Ellipse_4-56" data-name="Ellipse 4" cx="3" cy="3" r="3" transform="translate(450.5 1871.62) rotate(90)" fill= "#2196F3"/>
        <circle id="Ellipse_4-57" data-name="Ellipse 4" cx="3" cy="3" r="3" transform="translate(450.5 1885.993) rotate(90)" fill= "#2196F3"/>
        <circle id="Ellipse_4-58" data-name="Ellipse 4" cx="3" cy="3" r="3" transform="translate(450.5 1902.993) rotate(90)" fill= "#2196F3"/>
        <circle id="Ellipse_4-59" data-name="Ellipse 4" cx="3" cy="3" r="3" transform="translate(450.5 1919.993) rotate(90)" fill= "#2196F3"/>
        <circle id="Ellipse_4-60" data-name="Ellipse 4" cx="3" cy="3" r="3" transform="translate(467.5 1726.5) rotate(90)" fill= "#2196F3"/>
        <circle id="Ellipse_4-61" data-name="Ellipse 4" cx="3" cy="3" r="3" transform="translate(467.5 1743.5) rotate(90)" fill= "#2196F3"/>
        <circle id="Ellipse_4-62" data-name="Ellipse 4" cx="3" cy="3" r="3" transform="translate(467.5 1760.5) rotate(90)" fill= "#2196F3"/>
        <circle id="Ellipse_4-63" data-name="Ellipse 4" cx="3" cy="3" r="3" transform="translate(467.5 1774.873) rotate(90)" fill= "#2196F3"/>
        <circle id="Ellipse_4-64" data-name="Ellipse 4" cx="3" cy="3" r="3" transform="translate(467.5 1790.998) rotate(90)" fill= "#2196F3"/>
        <circle id="Ellipse_4-65" data-name="Ellipse 4" cx="3" cy="3" r="3" transform="translate(467.5 1807.122) rotate(90)" fill= "#2196F3"/>
        <circle id="Ellipse_4-66" data-name="Ellipse 4" cx="3" cy="3" r="3" transform="translate(467.5 1823.247) rotate(90)" fill= "#2196F3"/>
        <circle id="Ellipse_4-67" data-name="Ellipse 4" cx="3" cy="3" r="3" transform="translate(467.5 1839.371) rotate(90)" fill= "#2196F3"/>
        <circle id="Ellipse_4-68" data-name="Ellipse 4" cx="3" cy="3" r="3" transform="translate(467.5 1855.495) rotate(90)" fill= "#2196F3"/>
        <circle id="Ellipse_4-69" data-name="Ellipse 4" cx="3" cy="3" r="3" transform="translate(467.5 1871.62) rotate(90)" fill= "#2196F3"/>
        <circle id="Ellipse_4-70" data-name="Ellipse 4" cx="3" cy="3" r="3" transform="translate(467.5 1885.993) rotate(90)" fill= "#2196F3"/>
        <circle id="Ellipse_4-71" data-name="Ellipse 4" cx="3" cy="3" r="3" transform="translate(467.5 1902.993) rotate(90)" fill= "#2196F3"/>
        <circle id="Ellipse_4-72" data-name="Ellipse 4" cx="3" cy="3" r="3" transform="translate(467.5 1919.993) rotate(90)" fill= "#2196F3"/>
        <circle id="Ellipse_4-73" data-name="Ellipse 4" cx="3" cy="3" r="3" transform="translate(433.5 1839.371) rotate(90)" fill= "#2196F3"/>
        <circle id="Ellipse_4-74" data-name="Ellipse 4" cx="3" cy="3" r="3" transform="translate(433.5 1855.495) rotate(90)" fill= "#2196F3"/>
        <circle id="Ellipse_4-75" data-name="Ellipse 4" cx="3" cy="3" r="3" transform="translate(433.5 1871.62) rotate(90)" fill= "#2196F3"/>
        <circle id="Ellipse_4-76" data-name="Ellipse 4" cx="3" cy="3" r="3" transform="translate(433.5 1885.993) rotate(90)" fill= "#2196F3"/>
        <circle id="Ellipse_4-77" data-name="Ellipse 4" cx="3" cy="3" r="3" transform="translate(433.5 1902.993) rotate(90)" fill= "#2196F3"/>
        <circle id="Ellipse_4-78" data-name="Ellipse 4" cx="3" cy="3" r="3" transform="translate(433.5 1919.993) rotate(90)" fill= "#2196F3"/>
      </g>
      <g transform="matrix(1, 0, 0, 1, 289, 1375)" filter="url(#Rectangle_6)">
        <defs>
          <linearGradient id="grad3" x1="0%" y1="0%" x2="100%" y2="0%">
            <stop offset="0%" style="stop-color: white;stop-opacity:1" />
            <stop offset="100%" style="stop-color:white;stop-opacity:1" />
          </linearGradient>
        </defs>
        <rect id="Rectangle_6-2" data-name="Rectangle 6" width="144" height="144" rx="26" transform="translate(74 64)"  fill="url(#grad3)"/>
      </g>
      <!-- <g>
        <text style="dominant-baseline:central; text-anchor:middle; font-size:90px;">Save 25%</text>
      </g> -->
      <g id="Group_1505" data-name="Group 1505" transform="translate(-52 100)">
        
        <g id="Group_1504" data-name="Group 1504" transform="translate(461.644 1388.333)">
          <text x="-42" width="10" y="30" fill="#2196F3" font-size="smaller">ATHENA PROPERTIES
          </text>
        </g>
      </g>
    </g>
  </svg>
  